<svg width="375.3125px" height="118.39999999999999px" xmlns="http://www.w3.org/2000/svg" viewBox="62.34375 15.800000000000004 375.3125 118.39999999999999" style="background: none;" preserveAspectRatio="xMidYMid"><defs><linearGradient id="editing-gradow-gradient" x1="0" x2="1" y1="0.5" y2="0.5" gradientUnits="objectBoundingBox"><stop offset="0" stop-color="#bb353e"></stop><stop offset="1" stop-color="#125d98"></stop></linearGradient><filter id="editing-gradow-filter" x="-100%" y="-100%" width="300%" height="300%"><feFlood flood-color="#dce4eb" result="flood"></feFlood><feComposite operator="in" in2="SourceAlpha" in="flood" result="shadow"></feComposite><feOffset dx="-1.4" dy="-1.5" in="SourceGraphic" result="offset-1"></feOffset><feOffset dx="1.4" dy="1.5" in="shadow" result="offset-2"></feOffset><feMerge><feMergeNode in="offset-2"></feMergeNode><feMergeNode in="offset-1"></feMergeNode></feMerge></filter></defs><g filter="url(#editing-gradow-filter)"><g transform="translate(122.50644826889038, 100.38999938964844)"><path d="M29.95-4.25L29.95-4.25L29.95-4.25Q27.34-1.61 23.78-0.19L23.78-0.19L23.78-0.19Q20.21 1.24 16.68 1.24L16.68 1.24L16.68 1.24Q13.14 1.24 11.90 0.62L11.90 0.62L9.98 11.16L-2.60 12.40L5.95-31.62L16.06-32.67L15.25-28.40L15.25-28.40Q17.86-32.80 23.25-32.80L23.25-32.80L23.25-32.80Q29.33-32.80 32.55-28.89L32.55-28.89L32.55-28.89Q35.40-25.36 35.40-19.96L35.40-19.96L35.40-19.96Q35.40-14.57 33.98-10.73L33.98-10.73L33.98-10.73Q32.55-6.88 29.95-4.25ZM15.93-21.64L12.65-3.47L12.65-3.47Q13.95-2.36 15.56-2.36L15.56-2.36L15.56-2.36Q17.17-2.36 18.10-2.98L18.10-2.98L18.10-2.98Q19.03-3.60 19.72-4.84L19.72-4.84L19.72-4.84Q21.58-8.18 23.06-18.35L23.06-18.35L23.06-18.35Q23.50-21.33 23.50-24.24L23.50-24.24L23.50-24.24Q23.50-27.16 22.85-28.09L22.85-28.09L22.85-28.09Q22.20-29.02 20.96-29.02L20.96-29.02L20.96-29.02Q17.17-29.02 15.93-21.64L15.93-21.64ZM64.23-10.48L64.23-10.48L64.23-10.48Q65.78-9.42 65.78-7.10L65.78-7.10L65.78-7.10Q65.78-4.77 64.60-3.29L64.60-3.29L64.60-3.29Q63.43-1.80 61.50-0.81L61.50-0.81L61.50-0.81Q57.54 1.24 53.26 1.24L53.26 1.24L53.26 1.24Q48.98 1.24 46.47 0.31L46.47 0.31L46.47 0.31Q43.96-0.62 42.28-2.36L42.28-2.36L42.28-2.36Q39.00-5.64 39.00-11.66L39.00-11.66L39.00-11.66Q39.00-21.02 44.08-26.72L44.08-26.72L44.08-26.72Q49.54-32.86 59.02-32.86L59.02-32.86L59.02-32.86Q64.91-32.86 67.83-30.38L67.83-30.38L67.83-30.38Q70.00-28.52 70.00-25.48L70.00-25.48L70.00-25.48Q70.00-14.57 51.15-14.57L51.15-14.57L51.15-14.57Q50.90-12.96 50.90-11.59L50.90-11.59L50.90-11.59Q50.90-8.74 52.17-7.66L52.17-7.66L52.17-7.66Q53.44-6.57 55.80-6.57L55.80-6.57L55.80-6.57Q58.16-6.57 60.67-7.66L60.67-7.66L60.67-7.66Q63.18-8.74 64.23-10.48ZM51.58-17.24L51.58-17.24L51.58-17.24Q55.99-17.24 58.53-19.96L58.53-19.96L58.53-19.96Q61.07-22.57 61.07-26.72L61.07-26.72L61.07-26.72Q61.07-28.15 60.54-28.92L60.54-28.92L60.54-28.92Q60.02-29.70 58.96-29.70L58.96-29.70L58.96-29.70Q57.91-29.70 57.01-29.29L57.01-29.29L57.01-29.29Q56.11-28.89 55.18-27.53L55.18-27.53L55.18-27.53Q52.89-24.43 51.58-17.24ZM73.10-6.20L73.10-6.20L73.10-6.20Q73.10-7.87 73.97-12.09L73.97-12.09L77.25-28.83L73.59-28.83L73.84-30.69L73.84-30.69Q81.28-32.92 88.47-38.38L88.47-38.38L91.45-38.38L89.96-31.62L94.80-31.62L94.24-28.83L89.47-28.83L86.30-12.09L86.30-12.09Q85.50-8.25 85.50-6.94L85.50-6.94L85.50-6.94Q85.50-3.97 88.10-3.35L88.10-3.35L88.10-3.35Q87.48-1.24 85.25 0L85.25 0L85.25 0Q83.02 1.24 79.86 1.24L79.86 1.24L79.86 1.24Q76.69 1.24 74.90-0.74L74.90-0.74L74.90-0.74Q73.10-2.73 73.10-6.20ZM98.64-25.92L98.64-25.92L98.64-25.92Q100.75-28.89 103.94-30.88L103.94-30.88L103.94-30.88Q107.14-32.86 111.04-32.86L111.04-32.86L111.04-32.86Q114.95-32.86 116.81-31.62L116.81-31.62L128.96-32.86L124.74-9.05L124.74-9.05Q122.57 3.10 117.99 7.87L117.99 7.87L117.99 7.87Q113.58 12.40 105.03 12.40L105.03 12.40L105.03 12.40Q98.52 12.40 94.80 10.35L94.80 10.35L94.80 10.35Q91.08 8.31 91.08 4.90L91.08 4.90L91.08 4.90Q91.08 2.36 93.00 0.90L93.00 0.90L93.00 0.90Q94.92-0.56 97.90-0.56L97.90-0.56L97.90-0.56Q100.50-0.56 102.49 0.62L102.49 0.62L102.49 0.62Q103.66 1.24 104.22 2.11L104.22 2.11L104.22 2.11Q102.80 3.35 102.80 5.39L102.80 5.39L102.80 5.39Q102.80 8.06 105.28 8.06L105.28 8.06L105.28 8.06Q109.43 8.06 111.79-1.74L111.79-1.74L111.79-1.74Q112.47-4.40 113.03-7.07L113.03-7.07L113.03-7.07Q110.24-3.66 103.91-3.66L103.91-3.66L103.91-3.66Q99.51-3.66 96.97-5.77L96.97-5.77L96.97-5.77Q94.43-7.87 94.43-12.83L94.43-12.83L94.43-12.83Q94.43-15.93 95.48-19.44L95.48-19.44L95.48-19.44Q96.53-22.94 98.64-25.92ZM106.70-12.65L106.70-12.65L106.70-12.65Q106.70-8.43 108.87-8.43L108.87-8.43L108.87-8.43Q110.36-8.43 111.79-10.04L111.79-10.04L111.79-10.04Q112.90-11.35 113.34-13.27L113.34-13.27L116.50-29.20L116.50-29.20Q116.19-29.26 115.88-29.39L115.88-29.39L115.88-29.39Q115.26-29.64 114.45-29.64L114.45-29.64L114.45-29.64Q110.67-29.64 108.44-23.44L108.44-23.44L108.44-23.44Q106.70-18.60 106.70-12.65ZM150.78-17.42L150.78-17.42L150.78-17.42Q153.02-21.39 153.02-25.42L153.02-25.42L153.02-25.42Q153.02-28.09 151.09-28.09L151.09-28.09L151.09-28.09Q149.61-28.09 148.06-25.54L148.06-25.54L148.06-25.54Q146.44-23.00 145.95-19.72L145.95-19.72L142.72 0L129.89 1.24L136.21-31.62L146.44-32.86L145.33-26.60L145.33-26.60Q148.37-32.86 155.19-32.86L155.19-32.86L155.19-32.86Q158.78-32.86 160.73-31L160.73-31L160.73-31Q162.69-29.14 162.69-25.33L162.69-25.33L162.69-25.33Q162.69-21.51 160.18-19.10L160.18-19.10L160.18-19.10Q157.67-16.68 153.39-16.68L153.39-16.68L153.39-16.68Q151.53-16.68 150.78-17.42ZM166.38-1.86L166.38-1.86L166.38-1.86Q164.92-3.47 164.27-6.01L164.27-6.01L164.27-6.01Q163.62-8.56 163.62-12.71L163.62-12.71L163.62-12.71Q163.62-16.86 165.04-20.65L165.04-20.65L165.04-20.65Q166.47-24.43 169.07-27.16L169.07-27.16L169.07-27.16Q174.41-32.86 183.21-32.86L183.21-32.86L183.21-32.86Q186.37-32.86 188.67-31.81L188.67-31.81L199.27-32.86L194.68-8.68L194.68-8.68Q194.49-7.94 194.49-6.57L194.49-6.57L194.49-6.57Q194.49-5.21 195.33-4.34L195.33-4.34L195.33-4.34Q196.17-3.47 197.41-3.35L197.41-3.35L197.41-3.35Q196.79-1.24 194.52 0L194.52 0L194.52 0Q192.26 1.24 189.72 1.24L189.72 1.24L189.72 1.24Q187.18 1.24 185.47 0.28L185.47 0.28L185.47 0.28Q183.77-0.68 183.27-2.29L183.27-2.29L183.27-2.29Q182.28-0.74 180.17 0.25L180.17 0.25L180.17 0.25Q178.06 1.24 175.24 1.24L175.24 1.24L175.24 1.24Q172.42 1.24 170.13 0.50L170.13 0.50L170.13 0.50Q167.83-0.25 166.38-1.86ZM179.46-27.03L179.46-27.03L179.46-27.03Q178.75-25.92 178.13-24.02L178.13-24.02L178.13-24.02Q177.51-22.13 176.48-17.08L176.48-17.08L176.48-17.08Q175.46-12.03 175.46-8.43L175.46-8.43L175.46-8.43Q175.46-4.84 176.02-3.78L176.02-3.78L176.02-3.78Q176.58-2.73 177.57-2.73L177.57-2.73L177.57-2.73Q179.55-2.73 181.01-4.62L181.01-4.62L181.01-4.62Q182.47-6.51 183.02-9.86L183.02-9.86L186.31-28.02L186.31-28.02Q185.01-29.14 183.49-29.14L183.49-29.14L183.49-29.14Q181.97-29.14 181.07-28.64L181.07-28.64L181.07-28.64Q180.17-28.15 179.46-27.03ZM247.26 1.24L247.26 1.24L247.26 1.24Q239.75 1.24 239.75-4.59L239.75-4.59L239.75-4.59Q239.75-7.13 240.84-12.06L240.84-12.06L240.84-12.06Q241.92-16.99 242.30-18.97L242.30-18.97L242.30-18.97Q243.16-23.50 243.16-24.92L243.16-24.92L243.16-24.92Q243.16-28.09 240.81-28.09L240.81-28.09L240.81-28.09Q239.26-28.09 237.77-25.95L237.77-25.95L237.77-25.95Q236.28-23.81 235.60-19.53L235.60-19.53L231.76 0L219.67 1.24L223.01-15.62L223.01-15.62Q223.57-18.41 224.07-21.58L224.07-21.58L224.07-21.58Q224.56-24.74 224.56-25.23L224.56-25.23L224.56-25.23Q224.56-28.09 222.46-28.09L222.46-28.09L222.46-28.09Q221.03-28.09 219.48-25.98L219.48-25.98L219.48-25.98Q217.93-23.87 217.06-19.53L217.06-19.53L213.28 0L201.07 1.24L207.58-31.62L217.68-32.86L216.63-26.60L216.63-26.60Q218.24-29.95 221.22-31.40L221.22-31.40L221.22-31.40Q224.19-32.86 228.84-32.86L228.84-32.86L228.84-32.86Q231.51-32.86 233.24-31.56L233.24-31.56L233.24-31.56Q234.98-30.26 235.54-28.15L235.54-28.15L235.54-28.15Q236.59-30.32 239.29-31.59L239.29-31.59L239.29-31.59Q241.99-32.86 245.30-32.86L245.30-32.86L245.30-32.86Q248.62-32.86 250.26-32.15L250.26-32.15L250.26-32.15Q251.91-31.43 252.90-30.26L252.90-30.26L252.90-30.26Q254.57-28.09 254.57-24.12L254.57-24.12L254.57-24.12Q254.57-20.21 252.90-12.09L252.90-12.09L252.90-12.09Q252.03-8.12 252.03-6.67L252.03-6.67L252.03-6.67Q252.03-5.21 252.87-4.34L252.87-4.34L252.87-4.34Q253.70-3.47 254.94-3.35L254.94-3.35L254.94-3.35Q254.32-1.24 252.18 0L252.18 0L252.18 0Q250.05 1.24 247.26 1.24Z" fill="url(#editing-gradow-gradient)"></path></g></g><style>text {
  font-size: 64px;
  font-family: Arial Black;
  dominant-baseline: central;
  text-anchor: middle;
}</style></svg>